HIERARCHY
ROOT Hips
{
	OFFSET 0.000000 0.000000 0.000000
	CHANNELS 6 Xposition Yposition Zposition Zrotation Yrotation Xrotation 
	JOINT LHipJoint
	{
		OFFSET 0.000000 0.000000 0.000000
		CHANNELS 3 Zrotation Yrotation Xrotation
		JOINT LeftUpLeg
		{
			OFFSET 1.363060 -1.794630 0.839290
			CHANNELS 3 Zrotation Yrotation Xrotation
			JOINT LeftLeg
			{
				OFFSET 2.448110 -6.726130 0.000000
				CHANNELS 3 Zrotation Yrotation Xrotation
				JOINT LeftFoot
				{
					OFFSET 2.562200 -7.039590 0.000000
					CHANNELS 3 Zrotation Yrotation Xrotation
					JOINT LeftToeBase
					{
						OFFSET 0.157640 -0.433110 2.322550
						CHANNELS 3 Zrotation Yrotation Xrotation
						End Site
						{
							OFFSET 0.000000 0.000000 0.000000
						}
					}
				}
			}
		}
	}
	JOINT RHipJoint
	{
		OFFSET 0.000000 0.000000 0.000000
		CHANNELS 3 Zrotation Yrotation Xrotation
		JOINT RightUpLeg
		{
			OFFSET -1.305520 -1.794630 0.839290
			CHANNELS 3 Zrotation Yrotation Xrotation
			JOINT RightLeg
			{
				OFFSET -2.542530 -6.985550 0.000000
				CHANNELS 3 Zrotation Yrotation Xrotation
				JOINT RightFoot
				{
					OFFSET -2.568260 -7.056230 0.000000
					CHANNELS 3 Zrotation Yrotation Xrotation
					JOINT RightToeBase
					{
						OFFSET -0.164730 -0.452590 2.363150
						CHANNELS 3 Zrotation Yrotation Xrotation
						End Site
						{
							OFFSET 0.000000 0.000000 0.000000
						}
					}
				}
			}
		}
	}
	JOINT LowerBack
	{
		OFFSET 0.000000 0.000000 0.000000
		CHANNELS 3 Zrotation Yrotation Xrotation
		JOINT Spine
		{
			OFFSET 0.028270 2.035590 -0.193380
			CHANNELS 3 Zrotation Yrotation Xrotation
			JOINT Spine1
			{
				OFFSET 0.056720 2.048850 -0.042750
				CHANNELS 3 Zrotation Yrotation Xrotation
				JOINT Neck
				{
					OFFSET 0.000000 0.000000 0.000000
					CHANNELS 3 Zrotation Yrotation Xrotation
					JOINT Neck1
					{
						OFFSET -0.054170 1.746240 0.172020
						CHANNELS 3 Zrotation Yrotation Xrotation
						JOINT Head
						{
							OFFSET 0.104070 1.761360 -0.123970
							CHANNELS 3 Zrotation Yrotation Xrotation
							End Site
							{
								OFFSET 0.000000 0.000000 0.000000
							}
						}
					}
				}
				JOINT LeftShoulder
				{
					OFFSET 0.000000 0.000000 0.000000
					CHANNELS 3 Zrotation Yrotation Xrotation
					JOINT LeftArm
					{
						OFFSET 3.362410 1.200890 -0.311210
						CHANNELS 3 Zrotation Yrotation Xrotation
						JOINT LeftForeArm
						{
							OFFSET 4.983000 -0.000000 -0.000000
							CHANNELS 3 Zrotation Yrotation Xrotation
							JOINT LeftHand
							{
								OFFSET 3.483560 -0.000000 -0.000000
								CHANNELS 3 Zrotation Yrotation Xrotation
								JOINT LeftFingerBase
								{
									OFFSET 0.000000 0.000000 0.000000
									CHANNELS 3 Zrotation Yrotation Xrotation
									JOINT LeftHandIndex1
									{
										OFFSET 0.715260 -0.000000 -0.000000
										CHANNELS 3 Zrotation Yrotation Xrotation
										End Site
										{
											OFFSET 0.000000 0.000000 0.000000
										}
									}
								}
								JOINT LThumb
								{
									OFFSET 0.000000 0.000000 0.000000
									CHANNELS 3 Zrotation Yrotation Xrotation
									End Site
									{
										OFFSET 0.000000 0.000000 0.000000
									}
								}
							}
						}
					}
				}
				JOINT RightShoulder
				{
					OFFSET 0.000000 0.000000 0.000000
					CHANNELS 3 Zrotation Yrotation Xrotation
					JOINT RightArm
					{
						OFFSET -3.136600 1.374050 -0.404650
						CHANNELS 3 Zrotation Yrotation Xrotation
						JOINT RightForeArm
						{
							OFFSET -5.241900 -0.000000 -0.000000
							CHANNELS 3 Zrotation Yrotation Xrotation
							JOINT RightHand
							{
								OFFSET -3.444170 -0.000000 -0.000000
								CHANNELS 3 Zrotation Yrotation Xrotation
								JOINT RightFingerBase
								{
									OFFSET 0.000000 0.000000 0.000000
									CHANNELS 3 Zrotation Yrotation Xrotation
									JOINT RightHandIndex1
									{
										OFFSET -0.622530 -0.000000 -0.000000
										CHANNELS 3 Zrotation Yrotation Xrotation
										End Site
										{
											OFFSET 0.000000 0.000000 0.000000
										}
									}
								}
								JOINT RThumb
								{
									OFFSET 0.000000 0.000000 0.000000
									CHANNELS 3 Zrotation Yrotation Xrotation
									End Site
									{
										OFFSET 0.000000 0.000000 0.000000
									}
								}
							}
						}
					}
				}
			}
		}
	}
}
MOTION
Frames: 4
Frame Time: 0.008333
-10.030396 17.660915 -16.001205 -163.711881 86.189775 -159.445887 2.224059 -1.833836 -0.567244 -9.365259 -14.163216 -7.140665 -0.965093 9.006761 23.340795 0.023430 3.611261 -11.944428 1.721600 -8.260400 -23.507800 -11.345115 -0.962305 -4.951592 22.459638 -4.627621 7.035196 2.043768 -0.718961 3.276355 0.983297 -14.529915 -9.795823 -0.342300 3.759300 -10.400400 2.951601 -1.112242 11.728086 1.291107 -1.147104 -0.082437 1.316068 -1.001882 1.352660 -7.258942 -4.218317 -32.595834 5.834512 -3.670210 13.949288 2.740200 -1.711300 13.274600 2.904713 -1.603805 8.988250 -90.789569 -85.001842 55.173646 13.635665 -19.705035 -3.514360 -2.093012 1.255891 -31.024156 27.418732 7.045343 2.486500 -7.125000 0.000000 0.000000 1.615300 35.176300 -0.389900 -4.152967 0.419382 3.492902 77.156677 75.710068 36.798992 -21.087241 26.842797 -6.825524 2.064310 -1.630610 -4.594257 -22.951844 -40.243819 15.854600 7.125000 0.000000 0.000000 14.096700 -69.879400 -8.444600 
-10.022087 17.668050 -16.003453 -162.812319 86.177274 -158.384875 2.232352 -1.863282 -0.589913 -9.284938 -14.258201 -7.168283 -0.979013 8.969493 23.249663 0.020934 3.643418 -11.989664 1.610700 -8.003300 -22.724000 -11.334105 -0.990895 -4.913584 22.521071 -4.528104 6.880244 2.046394 -0.730522 3.266285 0.971703 -14.462918 -9.960883 -0.263900 3.305000 -9.129200 3.014580 -1.136274 11.719540 1.278604 -1.165077 -0.049630 1.253493 -1.028904 1.572973 -7.002956 -4.136922 -32.989662 5.626932 -3.629560 14.121510 2.596600 -1.695300 13.390700 2.859562 -1.408335 9.198566 -91.267224 -85.988881 55.832743 13.070450 -19.340659 -3.367558 -2.081261 1.200691 -31.114483 27.439635 7.072733 2.535800 -7.125000 0.000000 0.000000 1.642700 35.273700 -0.392600 -4.085450 0.183201 3.725737 77.639919 76.928701 36.935460 -20.272685 26.098717 -6.531023 2.043063 -1.619802 -3.885788 -22.842774 -40.194162 15.778000 7.125000 0.000000 0.000000 14.238100 -69.840700 -8.518300 
-10.013779 17.674991 -16.006386 -161.732071 86.160697 -157.143867 2.244965 -1.894860 -0.615337 -9.197783 -14.354971 -7.193208 -0.991053 8.933465 23.167338 0.017999 3.681374 -12.043661 1.510500 -7.761800 -21.993000 -11.320552 -1.022275 -4.872726 22.595143 -4.420693 6.725135 2.049880 -0.743331 3.255330 0.961320 -14.408633 -10.118785 -0.198900 2.871700 -7.921800 3.119988 -1.149398 11.702048 1.254341 -1.160823 -0.032214 1.145820 -1.043058 1.748953 -6.716367 -4.068061 -33.339478 5.410809 -3.622258 14.300797 2.438400 -1.691400 13.513000 2.818949 -1.250613 9.328918 -91.878007 -86.788920 56.620064 12.537695 -19.048451 -3.234489 -2.059041 1.151620 -31.209229 27.462179 7.109233 2.589300 -7.125000 0.000000 0.000000 1.661100 35.381500 -0.392700 -4.027398 -0.006871 3.952932 78.023345 78.024333 36.850967 -19.466008 25.337579 -6.248582 2.023643 -1.609349 -3.136192 -22.732311 -40.139082 15.700500 7.125000 0.000000 0.000000 14.371000 -69.797300 -8.585000 
-10.005567 17.680953 -16.009905 -160.546705 86.151437 -155.814277 2.261186 -1.924964 -0.641551 -9.116409 -14.427346 -7.214686 -0.999781 8.902821 23.104183 0.013909 3.728099 -12.100454 1.439500 -7.585200 -21.461200 -11.304841 -1.053050 -4.833492 22.670129 -4.307810 6.589059 2.053840 -0.755698 3.244597 0.952643 -14.367950 -10.259690 -0.149800 2.494400 -6.874000 3.240889 -1.155772 11.690205 1.227490 -1.142005 -0.023212 1.023862 -1.050277 1.884535 -6.456442 -4.019410 -33.623668 5.233895 -3.640479 14.458231 2.300100 -1.695800 13.622800 2.780116 -1.127767 9.366658 -92.656979 -87.405280 57.471855 12.013614 -18.807517 -3.109018 -2.022114 1.113708 -31.218163 27.484002 7.129190 2.632600 -7.125000 0.000000 0.000000 1.666500 35.470600 -0.390300 -3.978334 -0.155852 4.193440 78.333855 79.045532 36.629164 -18.671405 24.565071 -5.978943 2.006730 -1.596401 -2.409506 -22.637965 -40.087944 15.636200 7.125000 0.000000 0.000000 14.485900 -69.763500 -8.643800 
